<?xml version="1.0" encoding="UTF-8"?>
<svg width="80px" height="78px" viewBox="0 0 80 78" version="1.1" xmlns="http://www.w3.org/2000/svg" xmlns:xlink="http://www.w3.org/1999/xlink">
    <title>logo_emetis</title>
    <g id="最终定稿" stroke="none" stroke-width="1" fill="none" fill-rule="evenodd">
        <g id="Home备份--1" transform="translate(-270.000000, -3200.000000)" fill="#A5617F" fill-rule="nonzero">
            <g id="编组-8" transform="translate(120.000000, 3164.000000)">
                <path d="M229.993672,75.1379764 C229.838518,67.9599672 227.754395,60.9560232 223.959987,54.8609724 C220.16558,48.7659207 214.800745,43.8044387 208.428353,40.4970887 C202.05596,37.1897386 194.910926,35.6584344 187.742867,36.063829 C180.574809,36.4692236 173.64796,38.7963773 167.689089,42.8011304 C161.73022,46.8058834 156.958979,52.3406103 153.875954,58.8246197 C150.792929,65.3086308 149.511776,72.5029086 150.166897,79.6526399 C150.822018,86.8023712 153.389264,93.6440033 157.599297,99.4597299 C161.809331,105.275456 167.506953,109.850881 174.094382,112.705979 C176.040095,109.781386 177.52933,106.577672 178.510923,103.20489 C179.312968,101.164401 180.18391,99.1574737 181.086651,97.2159171 C183.264565,97.8683256 185.578755,97.9170977 187.782224,97.3570374 C189.985693,96.7969772 191.995736,95.6491044 193.597831,94.0359255 C193.597831,94.0359255 193.732101,93.9016658 193.732101,93.9016658 C191.764467,93.1699563 189.643629,92.9482276 187.567206,93.2571355 C185.490782,93.5660434 183.526346,94.3955329 181.856904,95.6683248 C182.961039,93.3593028 184.165864,91.1191765 185.402497,88.944421 C187.540448,89.7006748 189.843976,89.8604831 192.06587,89.4066944 C194.287764,88.9529057 196.344152,87.9026479 198.014372,86.3686318 C198.014372,86.3686318 198.148642,86.2343586 198.148642,86.2343586 C196.247806,85.4302121 194.177189,85.1101575 192.122276,85.3028568 C190.067364,85.4955561 188.092341,86.1949945 186.374141,87.3385205 C187.610774,85.2980281 188.88274,83.2911108 190.221835,81.4166841 C192.434354,81.9978079 194.76374,81.9620797 196.957397,81.3133711 C199.151054,80.6646625 201.125242,79.4277404 202.66588,77.736733 C202.66588,77.736733 202.766576,77.6024733 202.766576,77.6024733 C200.939405,77.0066343 198.997965,76.8475943 197.098191,77.1381511 C195.198416,77.428708 193.393248,78.1607611 191.827683,79.2754969 C191.928379,79.1412305 192.062649,78.9751614 192.161579,78.8408949 C192.963624,77.8038663 193.801002,76.7668444 194.634845,75.7633806 C197.18091,74.9301542 199.451491,73.4182632 201.202186,71.3904709 C202.952882,69.3626787 204.117366,66.8957961 204.570284,64.2553656 C204.570284,64.2553656 204.603858,64.0539558 204.603858,64.0539558 C204.603858,64.0539558 204.570284,64.0539558 204.570284,64.0539558 C201.919133,64.7434622 199.514144,66.1618594 197.627898,68.1483837 C195.741652,70.134908 194.449597,72.6101169 193.898166,75.2934514 C193.096121,76.2633468 192.292307,77.2367635 191.52383,78.2366925 C192.172651,76.5406273 192.437245,74.7217794 192.298558,72.9111466 C192.159871,71.1005139 191.621345,69.3431753 190.721782,67.7657145 C190.721782,67.7657145 190.721782,67.7657145 190.721782,67.7657145 C190.721782,67.7657145 190.621086,67.8999742 190.621086,67.8999742 C189.256262,69.7641505 188.433865,71.969637 188.244917,74.2723038 C188.05597,76.5749706 188.507834,78.8850169 189.550512,80.9467548 C188.278549,82.7540483 187.041916,84.5931443 185.870649,86.5329352 C186.247887,84.5829546 186.149931,82.5707941 185.585046,80.6666843 C185.02016,78.7625745 184.004974,77.0225423 182.625378,75.5937802 C182.625378,75.5937802 182.558243,75.7616149 182.558243,75.7616149 C181.704866,77.8879454 181.453231,80.2081444 181.830904,82.4679966 C182.208577,84.7278489 183.200988,86.8401482 184.699392,88.5734242 C183.528125,90.6139166 182.423983,92.7215321 181.353412,94.8962876 C181.678644,92.8651931 181.514426,90.7858151 180.874396,88.8309586 C180.234366,86.8761022 179.137013,85.1022389 177.673549,83.6568037 C177.673549,83.6568037 177.673549,83.6568037 177.673549,83.6568037 C177.673549,83.6568037 177.606427,83.8246385 177.606427,83.8246385 C176.843154,86.0535069 176.701503,88.4482187 177.196703,90.7515291 C177.691903,93.0548429 178.805234,95.1797143 180.417107,96.897918 C179.710461,98.4031135 179.046211,99.9012396 178.410228,101.480635 C178.235296,101.320045 178.030658,101.195213 177.807819,101.113169 C176.666458,100.78155 175.574896,100.297852 174.562534,99.6751035 C173.725586,99.1784665 172.83704,98.7744675 171.912609,98.4702434 C168.299878,97.2989517 168.835171,95.5605504 166.966091,92.0466684 C166.357883,91.3231843 165.711562,90.6326248 165.029878,89.9779149 C164.397451,89.5676787 163.879553,89.0035614 163.524725,88.3384528 C163.112583,87.5078986 162.851749,86.6105413 162.754472,85.6884643 C162.743396,85.178433 162.572846,84.6846805 162.266763,84.2765604 C161.960679,83.8684404 161.534445,83.566447 161.047928,83.4130039 C155.728645,81.5739113 158.104742,74.6821828 158.30437,73.7776549 C158.222613,72.607957 157.962868,71.4575839 157.534117,70.3662368 C157.489315,70.2242067 157.455649,70.0788946 157.433421,69.9316348 C157.2915,69.2175654 157.31736,68.4802927 157.508966,67.777926 C157.700573,67.0755594 158.052688,66.4272889 158.537556,65.8842183 C159.173539,65.24822 161.381809,64.2111896 161.849963,63.6087596 C162.318116,63.0063296 162.652009,62.3367647 163.121929,61.7696669 C164.608205,60.2870563 166.325313,59.0555846 168.206248,58.1232909 C169.744972,57.287662 170.013509,55.1464647 170.614158,54.4769014 C171.617596,53.3391729 173.15632,53.3391763 174.294021,52.3357142 C174.862871,51.8339824 175.707311,51.5654528 176.237297,51.0319217 C178.909323,48.5847751 182.276784,47.0300349 185.872415,46.5834648 C188.36577,46.380168 190.875528,46.606658 193.292212,47.2530382 C193.642026,47.3117869 193.988241,47.3902253 194.329213,47.4879961 C199.848124,47.6893949 206.47293,48.8253569 208.88083,51.1679471 C210.072897,52.3133955 210.95851,53.7396456 211.456557,55.3160618 C211.847729,56.5368282 212.387039,57.7050569 213.062419,58.7946165 C213.062419,58.7946165 214.534011,61.2025709 214.534011,61.2025709 C215.47165,62.721053 215.771951,64.5482997 215.36962,66.287011 C215.098472,67.1325298 215.075175,68.0380315 215.302485,68.8963752 C216.078648,70.0681151 216.988043,71.1459096 218.012469,72.1081627 C218.419484,72.5109216 218.867729,72.869754 219.349804,73.1787495 C220.482277,73.854395 221.576857,74.591607 222.628636,75.3870733 C222.663167,75.7094934 222.609807,76.0352562 222.474203,76.3298027 C222.338598,76.6243492 222.125804,76.8767079 221.858397,77.0601104 C220.922092,77.8957394 219.114838,79.2012976 219.114838,79.2012976 C219.180194,79.5708993 219.2924,79.9306584 219.448734,80.2718844 C219.715495,80.740048 220.317904,81.4767478 220.118278,82.1109771 C219.918652,82.7452064 218.613125,83.2822823 218.980582,83.9836448 C219.348039,84.7203413 220.284343,84.9199686 220.017582,85.5895318 C219.750821,86.2255302 218.445288,87.356201 218.579551,87.8314307 C218.713814,88.3066603 219.784396,92.7780746 217.307598,93.5518707 C214.242396,94.1580747 211.13157,94.5049719 208.008129,94.588896 C207.504252,94.6179557 207.015977,94.7743607 206.588994,95.0434732 C206.162007,95.3125857 205.810263,95.6856178 205.566661,96.1276599 C205.092501,97.0118049 204.786407,97.9762213 204.663917,98.971982 C203.76024,102.532837 202.563085,106.012692 201.08475,109.375837 C201.08475,109.375837 200.984061,109.577233 200.849798,109.877562 C200.525394,110.538738 200.321395,111.25244 200.247376,111.985188 C200.457889,112.523514 200.776554,113.012953 201.18368,113.423253 C201.398092,113.668765 201.679103,113.84683 201.992656,113.935883 C202.30621,114.024935 202.638853,114.021141 202.950297,113.924978 C210.967776,111.13083 217.898558,105.876876 222.75459,98.9120969 C227.610622,91.9473215 230.144042,83.6272453 229.993672,75.1379764 Z" id="logo_emetis"></path>
            </g>
        </g>
    </g>
</svg>