<?xml version="1.0" encoding="UTF-8"?>
<svg width="500px" height="500px" viewBox="0 0 500 500" version="1.1" xmlns="http://www.w3.org/2000/svg" xmlns:xlink="http://www.w3.org/1999/xlink">
    <title>token-logo</title>
    <defs>
        <linearGradient x1="50%" y1="0%" x2="50%" y2="100%" id="linearGradient-1">
            <stop stop-color="#BE692A" offset="0%"></stop>
            <stop stop-color="#E8C074" offset="100%"></stop>
        </linearGradient>
        <path d="M250,500 C388.071187,500 500,388.071187 500,250 C500,214.577017 492.632739,180.87475 479.346872,150.341853 C440.847281,61.8640701 352.648204,0 250,0 C111.928813,0 0,111.928813 0,250 C0,388.071187 111.928813,500 250,500 Z" id="path-2"></path>
        <linearGradient x1="28.7133444%" y1="37.5429841%" x2="64.6693652%" y2="87.3667797%" id="linearGradient-4">
            <stop stop-color="#BE692A" offset="0%"></stop>
            <stop stop-color="#EECC7E" offset="100%"></stop>
        </linearGradient>
        <path d="M102.222222,0 L194.734575,166.596771 C200.96245,179.894535 204.444444,194.752027 204.444444,210.428215 C204.444444,267.261143 158.677997,313.333333 102.222222,313.333333 C45.7664478,313.333333 0,267.261143 0,210.428215 C0,194.27755 3.69596621,178.99589 10.2829,165.393614 L102.222222,0 Z M102.216089,27.6154536 L22.1760889,171.602907 L21.9511531,172.074887 C16.4701137,183.681709 13.5290423,196.384153 13.4010347,209.531148 L13.3966692,210.428215 C13.3966692,259.830515 53.170271,299.869824 102.222222,299.869824 C151.274173,299.869824 191.047775,259.830515 191.047775,210.428215 C191.047775,197.35833 188.270173,184.710689 182.978144,173.11907 L182.793778,172.721661 L102.216089,27.6154536 Z" id="path-5"></path>
        <linearGradient x1="50%" y1="0%" x2="50%" y2="100%" id="linearGradient-6">
            <stop stop-color="#EECC7E" offset="0%"></stop>
            <stop stop-color="#85633F" offset="100%"></stop>
        </linearGradient>
        <linearGradient x1="50%" y1="0%" x2="50%" y2="100%" id="linearGradient-7">
            <stop stop-color="#BE692A" offset="0%"></stop>
            <stop stop-color="#EECC7E" offset="100%"></stop>
        </linearGradient>
        <path d="M170.339378,218.400293 L170.338378,218.410293 L170.335378,218.430293 L170.334378,218.440293 L170.258067,219.013705 L170.258067,219.013705 C170.226914,219.239192 170.194667,219.464428 170.161344,219.68931 C170.14029,219.831398 170.118843,219.973102 170.09697,220.114664 C170.072529,220.272846 170.047514,220.431111 170.021967,220.589195 C169.983679,220.826108 169.944276,221.062149 169.903688,221.297781 C169.883683,221.413922 169.863398,221.529916 169.842827,221.64581 C169.813299,221.812164 169.783144,221.97851 169.752399,222.144647 C169.718082,222.330074 169.683152,222.514613 169.647495,222.69889 L169.535585,223.264605 L169.535585,223.264605 C169.503094,223.425325 169.470127,223.58547 169.436611,223.745411 C169.414212,223.852304 169.391516,223.959351 169.368573,224.066305 C169.317867,224.30268 169.26606,224.53817 169.213063,224.773204 C169.172851,224.951539 169.132012,225.129365 169.090493,225.306926 L168.975012,225.792865 L168.975012,225.792865 C168.873824,226.211931 168.768735,226.62992 168.659884,227.046374 C168.587648,227.322736 168.513908,227.597867 168.438529,227.872313 C168.082105,229.169984 167.68919,230.451941 167.260859,231.717395 C167.080203,232.251127 166.893188,232.782084 166.699958,233.310014 L166.575956,233.646097 L166.575956,233.646097 C166.518263,233.801215 166.460304,233.955355 166.401814,234.109232 C166.33181,234.293403 166.260854,234.477692 166.189137,234.661597 C166.149428,234.763424 166.109478,234.865156 166.069294,234.966769 C165.996378,235.151151 165.922859,235.334746 165.848581,235.517947 C165.773846,235.70228 165.698149,235.886684 165.621684,236.070685 C165.566658,236.203095 165.511523,236.334612 165.455996,236.465921 C165.391293,236.618933 165.325902,236.772023 165.259979,236.924827 C165.168976,237.135764 165.077019,237.346018 164.984055,237.55572 C164.958099,237.614271 164.932142,237.672605 164.906107,237.730895 C164.807415,237.95186 164.707608,238.1722 164.60669,238.391917 C164.5375,238.542557 164.46763,238.693241 164.397238,238.843629 C164.326829,238.994049 164.256134,239.143674 164.184923,239.293002 C164.111886,239.446159 164.038197,239.599227 163.963965,239.751978 C163.883788,239.916967 163.802802,240.08194 163.721184,240.24654 C163.66491,240.360022 163.608688,240.472627 163.552169,240.585057 C163.462859,240.762719 163.37255,240.940448 163.281501,241.117729 C163.198773,241.278807 163.115655,241.439093 163.031934,241.599008 C162.970257,241.716817 162.908158,241.834602 162.845732,241.952184 C162.747172,242.137823 162.647917,242.322732 162.547851,242.507133 C162.489338,242.614963 162.430493,242.722717 162.371372,242.830295 C162.273124,243.00907 162.174019,243.187528 162.074154,243.365496 C161.985581,243.523337 161.896581,243.680493 161.806989,243.837263 C161.740106,243.954294 161.67286,244.071168 161.605284,244.187824 C161.499616,244.370238 161.393167,244.552081 161.285918,244.733388 L161.081786,245.076217 L161.081786,245.076217 C160.958651,245.281662 160.834915,245.485709 160.710161,245.689056 C160.663965,245.764355 160.617646,245.839533 160.571187,245.914614 C160.260971,246.415956 159.944399,246.91325 159.621731,247.406142 C159.5714,247.483026 159.520945,247.559765 159.470342,247.636396 C159.457983,247.655112 159.445678,247.673727 159.433365,247.692335 C159.054418,248.264991 158.66744,248.831314 158.272384,249.391458 C158.095627,249.642082 157.917071,249.89172 157.736911,250.140103 L157.446606,250.537367 C157.217926,250.847983 156.986722,251.156602 156.753024,251.463194 C156.688014,251.548481 156.622842,251.633572 156.557477,251.718506 L156.195754,252.184412 L156.195754,252.184412 C156.112512,252.290694 156.02892,252.396783 155.945026,252.502619 C155.795877,252.690775 155.645886,252.877992 155.494948,253.064401 C155.440899,253.131153 155.386566,253.198 155.332112,253.264743 C155.206782,253.418354 155.080996,253.571184 154.954571,253.723458 C154.849078,253.85052 154.743243,253.977073 154.636967,254.103237 C154.537951,254.220784 154.438285,254.338306 154.338235,254.455487 L153.993459,254.856198 L153.993459,254.856198 C153.899537,254.964522 153.805236,255.072603 153.710607,255.180384 C153.576609,255.333005 153.442051,255.484915 153.30684,255.636221 C153.20625,255.748784 153.105131,255.861199 153.00365,255.973277 C152.89874,256.089141 152.793664,256.204405 152.688206,256.319308 C152.54989,256.470013 152.410646,256.620386 152.270747,256.770131 C152.183232,256.863805 152.095598,256.957088 152.007709,257.050124 C151.891489,257.173151 151.77477,257.295805 151.657607,257.418025 C151.515131,257.566651 151.371948,257.714691 151.228113,257.862085 C151.145427,257.946816 151.062715,258.031142 150.979789,258.115255 C150.843451,258.253545 150.706479,258.391316 150.568934,258.528505 C150.454242,258.6429 150.339159,258.756884 150.22368,258.870462 C150.093963,258.998044 149.963439,259.125411 149.832417,259.25226 C149.732684,259.348813 149.632931,259.444811 149.532891,259.540508 C149.366935,259.699261 149.199963,259.857403 149.032207,260.01471 C148.969703,260.073321 148.907198,260.131715 148.844585,260.189993 C148.678576,260.344512 148.51162,260.498387 148.343909,260.651439 C148.246145,260.740659 148.147923,260.829782 148.049444,260.918622 C147.908697,261.045594 147.767506,261.17192 147.625795,261.297667 C147.517446,261.393811 147.408824,261.489589 147.2999,261.585027 C147.155866,261.71123 147.011146,261.836974 146.865901,261.962119 C146.747015,262.064553 146.627851,262.166522 146.508338,262.268088 C146.363674,262.391029 146.21855,262.513334 146.072919,262.635046 C145.976781,262.715394 145.880167,262.795694 145.783332,262.875733 C145.587172,263.037866 145.390464,263.198635 145.192861,263.358327 C145.124199,263.413815 145.055595,263.46904 144.986885,263.524135 C144.852569,263.631835 144.717491,263.739318 144.582003,263.8463 C144.45743,263.944662 144.332669,264.042478 144.207566,264.139868 L144.182734,264.15919 C143.66011,264.565659 143.131507,264.964714 142.59708,265.356199 L142.526835,265.407587 L142.526835,265.407587 C142.271292,265.594289 142.013869,265.779653 141.755129,265.963264 C141.734197,265.978119 141.713243,265.992971 141.69228,266.007812 C141.456148,266.174983 141.218796,266.340783 140.980362,266.50511 C140.81765,266.61725 140.654095,266.728934 140.490037,266.839925 L140.139579,267.075458 L140.139579,267.075458 C139.946276,267.204509 139.752833,267.332245 139.558714,267.459022 C139.48947,267.504244 139.419964,267.549459 139.350372,267.59455 C139.157918,267.719248 138.964795,267.843012 138.77102,267.965827 L138.446524,268.170227 L138.446524,268.170227 C138.31838,268.250446 138.189811,268.33034 138.060963,268.409818 C137.895643,268.511794 137.729851,268.613091 137.563602,268.713699 C137.434542,268.791802 137.305323,268.86942 137.175831,268.946622 C137.028138,269.034675 136.879997,269.122241 136.731503,269.209263 C136.586462,269.294261 136.440833,269.378885 136.294868,269.462986 C136.141738,269.551213 135.988669,269.638619 135.835235,269.72545 C135.699588,269.802216 135.563304,269.878727 135.426735,269.954784 C135.247313,270.054707 135.067418,270.153835 134.887036,270.252174 C134.792567,270.303675 134.698221,270.354822 134.603742,270.405753 C134.421938,270.50376 134.239247,270.601177 134.056069,270.697787 C133.903494,270.778255 133.751132,270.857877 133.598438,270.93694 L133.216762,271.133049 L133.216762,271.133049 C133.048042,271.21907 132.879028,271.304357 132.709617,271.388962 C132.558468,271.464445 132.40723,271.539274 132.255679,271.613559 L131.831667,271.819579 L131.831667,271.819579 C131.676983,271.894078 131.522005,271.967999 131.36671,272.041351 C131.205292,272.117596 131.04347,272.193255 130.881309,272.268297 C130.748997,272.329525 130.616785,272.390194 130.484349,272.450452 C130.310863,272.529389 130.136728,272.607739 129.962212,272.685379 C129.811582,272.752392 129.660692,272.818866 129.50952,272.884809 C129.359587,272.950211 129.209124,273.0152 129.058385,273.079662 C128.900066,273.147363 128.741976,273.214261 128.583586,273.280579 C128.420377,273.348916 128.256522,273.416771 128.092351,273.484006 C127.919883,273.554639 127.746979,273.624621 127.573729,273.693915 L127.205857,273.839807 L127.205857,273.839807 C127.020563,273.912669 126.834826,273.984763 126.648702,274.056067 C126.499367,274.113277 126.349554,274.170064 126.199493,274.226337 C125.679951,274.421167 125.157614,274.609786 124.632392,274.792172 C124.328024,274.897866 124.022651,275.001479 123.716326,275.102981 C123.589993,275.144842 123.46343,275.186367 123.336706,275.22753 C123.23723,275.259843 123.137768,275.291898 123.038207,275.32373 C122.806286,275.397881 122.57376,275.470849 122.340707,275.542602 C122.217224,275.580621 122.093405,275.618356 121.96944,275.655748 C121.768779,275.716272 121.567931,275.77584 121.366703,275.834507 C121.25975,275.865688 121.152578,275.896647 121.045299,275.92735 C120.80968,275.994783 120.573606,276.060965 120.337023,276.125906 C120.253033,276.148961 120.168833,276.171899 120.084569,276.19468 C119.835003,276.26215 119.584979,276.328213 119.334404,276.392889 L119.060748,276.462915 L119.060748,276.462915 C118.822364,276.523386 118.583592,276.582577 118.344332,276.640507 C118.210118,276.673004 118.075481,276.705167 117.940692,276.736931 C117.762245,276.778983 117.583512,276.820339 117.404513,276.860992 C117.229684,276.900697 117.055049,276.939632 116.880166,276.977897 C116.69862,277.017622 116.516215,277.056748 116.333545,277.095144 C116.195971,277.124059 116.058743,277.15246 115.921367,277.180447 C115.723092,277.220842 115.524307,277.260416 115.325216,277.299125 C115.179465,277.327463 115.033183,277.355407 114.886738,277.382883 C114.682082,277.421279 114.477736,277.458649 114.273077,277.495107 L113.874528,277.564882 L113.874528,277.564882 C113.680243,277.5983 113.485907,277.63086 113.291297,277.662597 C113.128452,277.689153 112.9654,277.715136 112.802158,277.74054 C112.590491,277.77348 112.378592,277.805434 112.166378,277.836412 L111.83211,277.884361 L111.83211,277.884361 C111.608342,277.915897 111.383777,277.946406 111.158871,277.975819 C111.018315,277.9942 110.87826,278.012075 110.738073,278.029524 C110.532019,278.055174 110.325007,278.079983 110.117715,278.103863 L109.691893,278.151567 L109.691893,278.151567 C109.497577,278.172721 109.302604,278.193101 109.10739,278.212659 C108.941837,278.229244 108.776418,278.245209 108.610827,278.260582 C108.424388,278.277892 108.237427,278.294477 108.050253,278.310307 L107.57586,278.348774 L107.57586,278.348774 C107.37087,278.364681 107.165674,278.379679 106.960229,278.393768 C106.804794,278.404428 106.649061,278.414577 106.493188,278.424202 C106.357948,278.432553 106.222742,278.440503 106.087432,278.448058 C105.851344,278.46124 105.614887,278.473225 105.378118,278.484003 C105.314263,278.48691 105.250305,278.489732 105.186326,278.492466 C104.914122,278.5041 104.641424,278.514142 104.368326,278.522579 C104.070801,278.531767 103.773608,278.539036 103.475954,278.544399 C103.422827,278.545356 103.369084,278.546263 103.315327,278.547107 L102.769073,278.553539 L102.769073,278.553539 L102.222222,278.555685 L101.488378,278.551293 L101.427378,278.550293 L101.454378,278.550293 L101.488378,278.551293 L101.737378,278.553293 L101.567499,278.552609 L101.567499,278.552609 L101.454378,278.550293 L101.427378,278.550293 L101.344378,278.549293 L100.914232,278.5434 L100.914232,278.5434 C100.692891,278.539242 100.470873,278.534003 100.249118,278.527707 L99.9387147,278.518197 L99.9387147,278.518197 C99.6578178,278.508964 99.3767743,278.498007 99.0961689,278.485355 C98.969262,278.479631 98.843229,278.473601 98.7172854,278.467229 C98.5267543,278.457592 98.3355995,278.447125 98.1446541,278.435872 C97.9861678,278.426532 97.8282063,278.416675 97.6703903,278.406282 C97.4080194,278.389004 97.1460853,278.370245 96.8845614,278.350012 C96.7734814,278.341418 96.6627777,278.332582 96.5521481,278.323483 C96.3379885,278.30587 96.1236218,278.287224 95.909539,278.267588 L95.6116756,278.239614 L95.6116756,278.239614 C95.2998462,278.20964 94.9887467,278.177582 94.678269,278.14344 L94.4857549,278.121995 L94.4857549,278.121995 C94.2131324,278.091233 93.9415605,278.058935 93.6704785,278.025048 C93.6112171,278.01764 93.551601,278.010108 93.4920087,278.002499 C93.1803542,277.962704 92.8696644,277.920852 92.5596391,277.876916 L92.3218738,277.842794 L92.3218738,277.842794 C92.0837701,277.808193 91.8464178,277.772419 91.6094658,277.735426 C91.5083355,277.719638 91.4073223,277.703634 91.3063825,277.687409 C90.6550481,277.582715 90.0067039,277.468792 89.3615512,277.345786 C89.3421302,277.342083 89.3228105,277.338391 89.3034937,277.334691 C88.9752677,277.271815 88.6478547,277.206586 88.3212874,277.139023 L88.1288133,277.098912 L88.1288133,277.098912 C87.8983633,277.050539 87.6682526,277.000984 87.4385723,276.950273 C87.3236033,276.924889 87.2089323,276.899258 87.0943695,276.873338 C86.4958945,276.737939 85.9000713,276.594599 85.3073187,276.443502 L85.0748074,276.383794 L85.0748074,276.383794 C84.4697781,276.227281 83.8683146,276.062779 83.2701909,275.890318 L83.0377133,275.822836 L83.0377133,275.822836 C82.7846234,275.748879 82.5326762,275.673661 82.2813381,275.597031 C82.2297101,275.581291 82.177782,275.565391 82.12588,275.54943 C81.8438141,275.462691 81.5628155,275.374269 81.2825991,275.284086 C81.1811592,275.251439 81.0794497,275.21844 80.9778441,275.18521 C80.7360386,275.106124 80.4951274,275.025829 80.2548114,274.944233 C80.2201265,274.932456 80.1851823,274.920559 80.1502508,274.908635 C79.8720331,274.813662 79.5948808,274.717038 79.3185404,274.618684 C79.2044446,274.578076 79.0903367,274.537119 78.9763684,274.495867 C78.7828754,274.42583 78.5895773,274.354867 78.396687,274.283057 L78.1173697,274.178373 L78.1173697,274.178373 C77.5299501,273.956748 76.9458839,273.727068 76.3657687,273.489637 C76.3132299,273.468133 76.2609114,273.446644 76.2086251,273.425091 C75.9336491,273.311746 75.6593681,273.196573 75.3859943,273.079669 C75.2893191,273.038326 75.1932025,272.99696 75.0971989,272.95538 C74.9206127,272.878898 74.7442017,272.801601 74.5681778,272.723582 C74.4596643,272.675487 74.3510743,272.627016 74.2426327,272.57827 C73.9768908,272.458815 73.7124197,272.337886 73.4488508,272.215326 C73.4167426,272.200395 73.3846926,272.185462 73.3526559,272.170504 C73.097345,272.051299 72.842893,271.930567 72.5893021,271.808315 C72.5231744,271.776437 72.4564918,271.744157 72.389869,271.711772 C71.8323436,271.440754 71.2796436,271.162706 70.7312498,270.87744 C70.6695329,270.845336 70.6078573,270.813133 70.5462364,270.780839 C69.985783,270.487123 69.4296879,270.18576 68.8782571,269.876975 C68.8460471,269.858939 68.8133716,269.840607 68.7807125,269.822249 C68.2327476,269.514223 67.6897568,269.199073 67.1515138,268.876728 C67.0775489,268.832431 67.004208,268.78832 66.9309558,268.744076 C66.7006922,268.605002 66.4707102,268.464238 66.2416196,268.322159 C66.2058681,268.299986 66.170258,268.277856 66.1346696,268.255694 C65.8879322,268.102043 65.6421392,267.946803 65.3973984,267.790047 C65.3156615,267.737695 65.2339196,267.685095 65.1522959,267.632325 C64.9658703,267.511802 64.7799362,267.390314 64.5946253,267.267948 C64.5181987,267.21748 64.4422775,267.167129 64.3664616,267.116631 C64.3462532,267.103171 64.325645,267.089429 64.3050446,267.075676 C46.6969807,255.319929 34.7842911,235.611873 33.6223784,213.040969 C39.7450689,216.425632 46.614842,218.60763 53.9192096,219.272721 C54.4524661,216.649552 55.0144217,214.052548 55.5954853,211.474223 C44.9699349,204.788048 38.0907298,189.537198 40.1376554,176.749205 L40.1376554,176.749205 L40.2277598,176.276058 L40.2503946,176.271218 C49.7117567,181.605706 56.4484657,193.709867 57.0475702,205.310916 C58.6983792,198.627419 60.5516503,192.115798 62.5849535,185.780576 C52.5339976,178.780457 46.5922335,163.80685 49.1867209,151.47528 L49.1867209,151.47528 L49.3042748,151.02008 L49.3269097,151.01524 C58.3614632,156.46481 64.4384649,168.256156 64.6958458,179.47667 C66.7870906,173.415676 69.080482,167.526352 71.5262511,161.795797 C63.348082,152.532066 61.2136151,136.361911 66.8302428,124.960649 L66.8302428,124.960649 L67.0530956,124.554656 C73.8274341,131.443195 76.8794095,142.854269 75.4173215,153.128451 C76.96359,149.88318 78.5473082,146.701897 80.2134301,143.574716 C79.717522,128.415827 89.7270551,111.847135 103.082066,106.052918 L103.082066,106.052918 L103.127348,106.043293 L103.179937,106.629373 C104.294625,121.344967 95.1758981,137.74754 82.4926607,144.472803 C80.759923,147.733857 79.1095338,151.048752 77.4965943,154.427636 C77.2653458,154.907147 77.0391721,155.40939 76.8078682,155.88864 C84.2196332,147.925641 96.0106057,143.158786 106.092827,144.801199 L106.092827,144.801199 L106.138357,144.791463 L105.897424,145.225139 C100.008731,156.350326 85.9016141,163.977383 73.7161757,162.832335 C71.1287242,168.903894 68.7210445,175.151907 66.5206415,181.594583 C74.5329568,173.216551 87.7995257,168.802942 98.4236227,171.547954 L98.4236227,171.547954 L98.4688924,171.538274 L98.2005098,171.954003 C91.3835702,182.393734 76.8225948,188.660387 64.867505,186.582414 C62.7072234,193.326945 60.749404,200.243352 59.0217009,207.349264 C66.5938405,198.348673 79.8552333,193.124225 90.7832426,195.397729 L90.7832426,195.397729 L90.8287725,195.387993 L90.5652599,195.826771 C84.2439333,206.590315 69.9690391,213.536567 57.9157093,212.005203 C57.3532037,214.458532 56.8159601,216.935104 56.305223,219.432966 C57.0910816,219.470341 57.8812719,219.488225 58.6756115,219.488225 C69.3760578,219.488225 79.3235512,216.242914 87.5998326,210.676686 L87.6136176,210.664859 L87.6136176,210.664859 C89.1179762,209.654883 90.5657101,208.566793 91.9527875,207.407691 C102.214424,200.354613 114.620057,196.231699 127.982257,196.231699 C144.15053,196.231699 158.918289,202.268065 170.183006,212.224223 C170.399081,212.45039 170.615051,212.676802 170.829917,212.904281 C170.748071,214.554701 170.608757,216.18988 170.413949,217.807832 L170.406378,217.864293 L170.387378,218.019293 L170.380912,218.077775 L170.353378,218.287293 L170.351378,218.307293 L170.339378,218.400293 Z" id="path-8"></path>
        <linearGradient x1="50%" y1="0%" x2="50%" y2="100%" id="linearGradient-9">
            <stop stop-color="#EECC7E" offset="0%"></stop>
            <stop stop-color="#85633F" offset="100%"></stop>
        </linearGradient>
        <linearGradient x1="50%" y1="0%" x2="50%" y2="100%" id="linearGradient-10">
            <stop stop-color="#BE692A" offset="0%"></stop>
            <stop stop-color="#EECC7E" offset="100%"></stop>
        </linearGradient>
        <path d="M101.737378,278.553293 L101.567499,278.552609 L101.530666,278.550807 L101.520666,278.550807 L101.454378,278.550293 L101.488378,278.551293 L101.427378,278.550293 L101.344378,278.549293 L100.914232,278.5434 C100.692891,278.539242 100.470873,278.534003 100.249118,278.527707 L99.9387147,278.518197 C99.6578178,278.508964 99.3767743,278.498007 99.0961689,278.485355 C98.969262,278.479631 98.843229,278.473601 98.7172854,278.467229 C98.5267543,278.457592 98.3355995,278.447125 98.1446541,278.435872 L97.6703903,278.406282 L97.6703903,278.406282 C97.4080194,278.389004 97.1460853,278.370245 96.8845614,278.350012 C96.7734814,278.341418 96.6627777,278.332582 96.5521481,278.323483 C96.3379885,278.30587 96.1236218,278.287224 95.909539,278.267588 L95.6116756,278.239614 C95.2998462,278.20964 94.9887467,278.177582 94.678269,278.14344 L94.4857549,278.121995 C94.2131324,278.091233 93.9415605,278.058935 93.6704785,278.025048 C93.6112171,278.01764 93.551601,278.010108 93.4920087,278.002499 C93.1803542,277.962704 92.8696644,277.920852 92.5596391,277.876916 L92.3218738,277.842794 C92.0837701,277.808193 91.8464178,277.772419 91.6094658,277.735426 C91.5083355,277.719638 91.4073223,277.703634 91.3063825,277.687409 C90.6550481,277.582715 90.0067039,277.468792 89.3615512,277.345786 C89.3421302,277.342083 89.3228105,277.338391 89.3034937,277.334691 C88.9752677,277.271815 88.6478547,277.206586 88.3212874,277.139023 L88.1288133,277.098912 C87.8983633,277.050539 87.6682526,277.000984 87.4385723,276.950273 C87.3236033,276.924889 87.2089323,276.899258 87.0943695,276.873338 C86.4958945,276.737939 85.9000713,276.594599 85.3073187,276.443502 L85.0748074,276.383794 C84.4697781,276.227281 83.8683146,276.062779 83.2701909,275.890318 L83.0377133,275.822836 C82.7846234,275.748879 82.5326762,275.673661 82.2813381,275.597031 C82.2297101,275.581291 82.177782,275.565391 82.12588,275.54943 C81.8438141,275.462691 81.5628155,275.374269 81.2825991,275.284086 C81.1811592,275.251439 81.0794497,275.21844 80.9778441,275.18521 C80.7360386,275.106124 80.4951274,275.025829 80.2548114,274.944233 C80.2201265,274.932456 80.1851823,274.920559 80.1502508,274.908635 C79.8720331,274.813662 79.5948808,274.717038 79.3185404,274.618684 L78.9763684,274.495867 L78.9763684,274.495867 C78.7828754,274.42583 78.5895773,274.354867 78.396687,274.283057 L78.1173697,274.178373 C77.5299501,273.956748 76.9458839,273.727068 76.3657687,273.489637 L76.2086251,273.425091 L76.2086251,273.425091 C75.9336491,273.311746 75.6593681,273.196573 75.3859943,273.079669 C75.2893191,273.038326 75.1932025,272.99696 75.0971989,272.95538 C74.9206127,272.878898 74.7442017,272.801601 74.5681778,272.723582 C74.4596643,272.675487 74.3510743,272.627016 74.2426327,272.57827 C73.9768908,272.458815 73.7124197,272.337886 73.4488508,272.215326 C73.4167426,272.200395 73.3846926,272.185462 73.3526559,272.170504 C73.097345,272.051299 72.842893,271.930567 72.5893021,271.808315 C72.5231744,271.776437 72.4564918,271.744157 72.389869,271.711772 C71.8323436,271.440754 71.2796436,271.162706 70.7312498,270.87744 C70.6695329,270.845336 70.6078573,270.813133 70.5462364,270.780839 C69.985783,270.487123 69.4296879,270.18576 68.8782571,269.876975 C68.8460471,269.858939 68.8133716,269.840607 68.7807125,269.822249 C68.2327476,269.514223 67.6897568,269.199073 67.1515138,268.876728 L66.9309558,268.744076 L66.9309558,268.744076 C66.7006922,268.605002 66.4707102,268.464238 66.2416196,268.322159 C66.2058681,268.299986 66.170258,268.277856 66.1346696,268.255694 C65.8879322,268.102043 65.6421392,267.946803 65.3973984,267.790047 C65.3156615,267.737695 65.2339196,267.685095 65.1522959,267.632325 C64.9658703,267.511802 64.7799362,267.390314 64.5946253,267.267948 L64.3664616,267.116631 C64.3462532,267.103171 64.325645,267.089429 64.3050446,267.075676 C46.9201557,255.468928 35.087183,236.110179 33.6717296,213.89781 C49.9102334,240.228549 79.0168068,257.777778 112.222222,257.777778 C130.66679,257.777778 147.846679,252.363043 162.25901,243.036453 L162.371372,242.830295 C162.273124,243.00907 162.174019,243.187528 162.074154,243.365496 C161.985581,243.523337 161.896581,243.680493 161.806989,243.837263 C161.740106,243.954294 161.67286,244.071168 161.605284,244.187824 C161.499616,244.370238 161.393167,244.552081 161.285918,244.733388 L161.081786,245.076217 C160.958651,245.281662 160.834915,245.485709 160.710161,245.689056 C160.663965,245.764355 160.617646,245.839533 160.571187,245.914614 C160.260971,246.415956 159.944399,246.91325 159.621731,247.406142 L159.470342,247.636396 L159.470342,247.636396 C159.457983,247.655112 159.445678,247.673727 159.433365,247.692335 C159.054418,248.264991 158.66744,248.831314 158.272384,249.391458 C158.095627,249.642082 157.917071,249.89172 157.736911,250.140103 L157.446606,250.537367 C157.217926,250.847983 156.986722,251.156602 156.753024,251.463194 C156.688014,251.548481 156.622842,251.633572 156.557477,251.718506 L156.195754,252.184412 C156.112512,252.290694 156.02892,252.396783 155.945026,252.502619 C155.795877,252.690775 155.645886,252.877992 155.494948,253.064401 C155.440899,253.131153 155.386566,253.198 155.332112,253.264743 C155.206782,253.418354 155.080996,253.571184 154.954571,253.723458 C154.849078,253.85052 154.743243,253.977073 154.636967,254.103237 C154.537951,254.220784 154.438285,254.338306 154.338235,254.455487 L153.993459,254.856198 C153.899537,254.964522 153.805236,255.072603 153.710607,255.180384 C153.576609,255.333005 153.442051,255.484915 153.30684,255.636221 C153.20625,255.748784 153.105131,255.861199 153.00365,255.973277 C152.89874,256.089141 152.793664,256.204405 152.688206,256.319308 C152.54989,256.470013 152.410646,256.620386 152.270747,256.770131 C152.183232,256.863805 152.095598,256.957088 152.007709,257.050124 C151.891489,257.173151 151.77477,257.295805 151.657607,257.418025 C151.515131,257.566651 151.371948,257.714691 151.228113,257.862085 C151.145427,257.946816 151.062715,258.031142 150.979789,258.115255 C150.843451,258.253545 150.706479,258.391316 150.568934,258.528505 C150.454242,258.6429 150.339159,258.756884 150.22368,258.870462 L149.832417,259.25226 L149.832417,259.25226 C149.732684,259.348813 149.632931,259.444811 149.532891,259.540508 C149.366935,259.699261 149.199963,259.857403 149.032207,260.01471 L148.844585,260.189993 L148.844585,260.189993 C148.678576,260.344512 148.51162,260.498387 148.343909,260.651439 C148.246145,260.740659 148.147923,260.829782 148.049444,260.918622 C147.908697,261.045594 147.767506,261.17192 147.625795,261.297667 L147.2999,261.585027 L147.2999,261.585027 C147.155866,261.71123 147.011146,261.836974 146.865901,261.962119 L146.508338,262.268088 L146.508338,262.268088 C146.363674,262.391029 146.21855,262.513334 146.072919,262.635046 L145.783332,262.875733 L145.783332,262.875733 C145.587172,263.037866 145.390464,263.198635 145.192861,263.358327 L144.986885,263.524135 L144.986885,263.524135 C144.852569,263.631835 144.717491,263.739318 144.582003,263.8463 C144.45743,263.944662 144.332669,264.042478 144.207566,264.139868 L144.182734,264.15919 C143.66011,264.565659 143.131507,264.964714 142.59708,265.356199 L142.526835,265.407587 C142.271292,265.594289 142.013869,265.779653 141.755129,265.963264 C141.734197,265.978119 141.713243,265.992971 141.69228,266.007812 C141.456148,266.174983 141.218796,266.340783 140.980362,266.50511 C140.81765,266.61725 140.654095,266.728934 140.490037,266.839925 L140.139579,267.075458 C139.946276,267.204509 139.752833,267.332245 139.558714,267.459022 C139.48947,267.504244 139.419964,267.549459 139.350372,267.59455 C139.157918,267.719248 138.964795,267.843012 138.77102,267.965827 L138.446524,268.170227 C138.31838,268.250446 138.189811,268.33034 138.060963,268.409818 C137.895643,268.511794 137.729851,268.613091 137.563602,268.713699 C137.434542,268.791802 137.305323,268.86942 137.175831,268.946622 C137.028138,269.034675 136.879997,269.122241 136.731503,269.209263 L136.294868,269.462986 L136.294868,269.462986 L135.835235,269.72545 L135.835235,269.72545 C135.699588,269.802216 135.563304,269.878727 135.426735,269.954784 C135.247313,270.054707 135.067418,270.153835 134.887036,270.252174 C134.792567,270.303675 134.698221,270.354822 134.603742,270.405753 C134.421938,270.50376 134.239247,270.601177 134.056069,270.697787 C133.903494,270.778255 133.751132,270.857877 133.598438,270.93694 L133.216762,271.133049 L132.709617,271.388962 L132.709617,271.388962 C132.558468,271.464445 132.40723,271.539274 132.255679,271.613559 L131.831667,271.819579 C131.676983,271.894078 131.522005,271.967999 131.36671,272.041351 C131.205292,272.117596 131.04347,272.193255 130.881309,272.268297 C130.748997,272.329525 130.616785,272.390194 130.484349,272.450452 C130.310863,272.529389 130.136728,272.607739 129.962212,272.685379 C129.811582,272.752392 129.660692,272.818866 129.50952,272.884809 C129.359587,272.950211 129.209124,273.0152 129.058385,273.079662 C128.900066,273.147363 128.741976,273.214261 128.583586,273.280579 C128.420377,273.348916 128.256522,273.416771 128.092351,273.484006 L127.573729,273.693915 L127.573729,273.693915 L127.205857,273.839807 C127.020563,273.912669 126.834826,273.984763 126.648702,274.056067 L126.199493,274.226337 L126.199493,274.226337 C125.679951,274.421167 125.157614,274.609786 124.632392,274.792172 C124.328024,274.897866 124.022651,275.001479 123.716326,275.102981 C123.589993,275.144842 123.46343,275.186367 123.336706,275.22753 C123.23723,275.259843 123.137768,275.291898 123.038207,275.32373 C122.806286,275.397881 122.57376,275.470849 122.340707,275.542602 C122.217224,275.580621 122.093405,275.618356 121.96944,275.655748 C121.768779,275.716272 121.567931,275.77584 121.366703,275.834507 C121.25975,275.865688 121.152578,275.896647 121.045299,275.92735 C120.80968,275.994783 120.573606,276.060965 120.337023,276.125906 C120.253033,276.148961 120.168833,276.171899 120.084569,276.19468 C119.835003,276.26215 119.584979,276.328213 119.334404,276.392889 L119.060748,276.462915 C118.822364,276.523386 118.583592,276.582577 118.344332,276.640507 C118.210118,276.673004 118.075481,276.705167 117.940692,276.736931 C117.762245,276.778983 117.583512,276.820339 117.404513,276.860992 C117.229684,276.900697 117.055049,276.939632 116.880166,276.977897 C116.69862,277.017622 116.516215,277.056748 116.333545,277.095144 C116.195971,277.124059 116.058743,277.15246 115.921367,277.180447 C115.723092,277.220842 115.524307,277.260416 115.325216,277.299125 L114.886738,277.382883 L114.886738,277.382883 L114.273077,277.495107 L114.273077,277.495107 L113.874528,277.564882 C113.680243,277.5983 113.485907,277.63086 113.291297,277.662597 C113.128452,277.689153 112.9654,277.715136 112.802158,277.74054 C112.590491,277.77348 112.378592,277.805434 112.166378,277.836412 L111.83211,277.884361 C111.608342,277.915897 111.383777,277.946406 111.158871,277.975819 C111.018315,277.9942 110.87826,278.012075 110.738073,278.029524 C110.532019,278.055174 110.325007,278.079983 110.117715,278.103863 L109.691893,278.151567 C109.497577,278.172721 109.302604,278.193101 109.10739,278.212659 C108.941837,278.229244 108.776418,278.245209 108.610827,278.260582 C108.424388,278.277892 108.237427,278.294477 108.050253,278.310307 L107.57586,278.348774 C107.37087,278.364681 107.165674,278.379679 106.960229,278.393768 C106.804794,278.404428 106.649061,278.414577 106.493188,278.424202 L106.087432,278.448058 L106.087432,278.448058 C105.851344,278.46124 105.614887,278.473225 105.378118,278.484003 L105.186326,278.492466 L105.186326,278.492466 C104.914122,278.5041 104.641424,278.514142 104.368326,278.522579 C104.070801,278.531767 103.773608,278.539036 103.475954,278.544399 C103.422827,278.545356 103.369084,278.546263 103.315327,278.547107 L102.769073,278.553539 L102.222222,278.555685 L101.540666,278.550807 L101.737378,278.553293 Z" id="path-11"></path>
        <linearGradient x1="50%" y1="0%" x2="50%" y2="100%" id="linearGradient-12">
            <stop stop-color="#EECC7E" offset="0%"></stop>
            <stop stop-color="#BE692A" offset="100%"></stop>
        </linearGradient>
    </defs>
    <g id="页面-1" stroke="none" stroke-width="1" fill="none" fill-rule="evenodd">
        <g id="token-logo">
            <mask id="mask-3" fill="white">
                <use xlink:href="#path-2"></use>
            </mask>
            <path stroke="url(#linearGradient-1)" stroke-width="16" d="M250,8 C298.909224,8 344.43069,22.5070178 382.492575,47.4574098 C421.757347,73.1963198 453.087041,110.043175 472.011252,153.533823 C484.871583,183.088775 492,215.711994 492,250 C492,316.826455 464.913227,377.326455 421.119841,421.119841 C377.326455,464.913227 316.826455,492 250,492 C183.173545,492 122.673545,464.913227 78.880159,421.119841 C35.0867726,377.326455 8,316.826455 8,250 C8,183.173545 35.0867726,122.673545 78.880159,78.880159 C122.673545,35.0867726 183.173545,8 250,8 Z"></path>
            <g id="shuidi" mask="url(#mask-3)">
                <g transform="translate(147.777778, 93.333333)">
                    <g id="蒙版" fill="none">
                        <use fill="#FFFFFF" xlink:href="#path-5"></use>
                        <use fill="url(#linearGradient-4)" xlink:href="#path-5"></use>
                    </g>
                    <g id="形状结合" fill="none">
                        <use fill="#FFFFFF" xlink:href="#path-8"></use>
                        <use fill="url(#linearGradient-6)" xlink:href="#path-8"></use>
                        <use fill="url(#linearGradient-7)" xlink:href="#path-8"></use>
                    </g>
                    <g id="形状结合" fill="none">
                        <use fill="#FFFFFF" xlink:href="#path-11"></use>
                        <use fill="url(#linearGradient-9)" xlink:href="#path-11"></use>
                        <use fill="url(#linearGradient-10)" xlink:href="#path-11"></use>
                    </g>
                    <path d="M101.737378,278.553293 L101.567499,278.552609 L101.531488,278.550748 L101.520488,278.550748 L101.454378,278.550293 L101.488378,278.551293 L101.427378,278.550293 L101.344378,278.549293 L100.914232,278.5434 C100.692891,278.539242 100.470873,278.534003 100.249118,278.527707 L99.9387147,278.518197 C99.6578178,278.508964 99.3767743,278.498007 99.0961689,278.485355 C98.969262,278.479631 98.843229,278.473601 98.7172854,278.467229 C98.5267543,278.457592 98.3355995,278.447125 98.1446541,278.435872 C97.9861678,278.426532 97.8282063,278.416675 97.6703903,278.406282 C97.4080194,278.389004 97.1460853,278.370245 96.8845614,278.350012 C96.7734814,278.341418 96.6627777,278.332582 96.5521481,278.323483 C96.3379885,278.30587 96.1236218,278.287224 95.909539,278.267588 L95.6116756,278.239614 C95.2998462,278.20964 94.9887467,278.177582 94.678269,278.14344 L94.4857549,278.121995 C94.2131324,278.091233 93.9415605,278.058935 93.6704785,278.025048 C93.6112171,278.01764 93.551601,278.010108 93.4920087,278.002499 C93.1803542,277.962704 92.8696644,277.920852 92.5596391,277.876916 L92.3218738,277.842794 C92.0837701,277.808193 91.8464178,277.772419 91.6094658,277.735426 C91.5083355,277.719638 91.4073223,277.703634 91.3063825,277.687409 C90.6550481,277.582715 90.0067039,277.468792 89.3615512,277.345786 C89.3421302,277.342083 89.3228105,277.338391 89.3034937,277.334691 C88.9752677,277.271815 88.6478547,277.206586 88.3212874,277.139023 L88.1288133,277.098912 C87.8983633,277.050539 87.6682526,277.000984 87.4385723,276.950273 C87.3236033,276.924889 87.2089323,276.899258 87.0943695,276.873338 C86.4958945,276.737939 85.9000713,276.594599 85.3073187,276.443502 L85.0748074,276.383794 C84.4697781,276.227281 83.8683146,276.062779 83.2701909,275.890318 L83.0377133,275.822836 C82.7846234,275.748879 82.5326762,275.673661 82.2813381,275.597031 C82.2297101,275.581291 82.177782,275.565391 82.12588,275.54943 C81.8438141,275.462691 81.5628155,275.374269 81.2825991,275.284086 C81.1811592,275.251439 81.0794497,275.21844 80.9778441,275.18521 C80.7360386,275.106124 80.4951274,275.025829 80.2548114,274.944233 C80.2201265,274.932456 80.1851823,274.920559 80.1502508,274.908635 C79.8720331,274.813662 79.5948808,274.717038 79.3185404,274.618684 C79.2044446,274.578076 79.0903367,274.537119 78.9763684,274.495867 C78.7828754,274.42583 78.5895773,274.354867 78.396687,274.283057 L78.1173697,274.178373 C77.5299501,273.956748 76.9458839,273.727068 76.3657687,273.489637 C76.3132299,273.468133 76.2609114,273.446644 76.2086251,273.425091 C75.9336491,273.311746 75.6593681,273.196573 75.3859943,273.079669 C75.2893191,273.038326 75.1932025,272.99696 75.0971989,272.95538 C74.9206127,272.878898 74.7442017,272.801601 74.5681778,272.723582 C74.4596643,272.675487 74.3510743,272.627016 74.2426327,272.57827 C73.9768908,272.458815 73.7124197,272.337886 73.4488508,272.215326 C73.4167426,272.200395 73.3846926,272.185462 73.3526559,272.170504 C73.097345,272.051299 72.842893,271.930567 72.5893021,271.808315 C72.5231744,271.776437 72.4564918,271.744157 72.389869,271.711772 C71.8323436,271.440754 71.2796436,271.162706 70.7312498,270.87744 C70.6695329,270.845336 70.6078573,270.813133 70.5462364,270.780839 C69.985783,270.487123 69.4296879,270.18576 68.8782571,269.876975 C68.8460471,269.858939 68.8133716,269.840607 68.7807125,269.822249 C68.2327476,269.514223 67.6897568,269.199073 67.1515138,268.876728 C67.0775489,268.832431 67.004208,268.78832 66.9309558,268.744076 C66.7006922,268.605002 66.4707102,268.464238 66.2416196,268.322159 C66.2058681,268.299986 66.170258,268.277856 66.1346696,268.255694 C65.8879322,268.102043 65.6421392,267.946803 65.3973984,267.790047 C65.3156615,267.737695 65.2339196,267.685095 65.1522959,267.632325 C64.9658703,267.511802 64.7799362,267.390314 64.5946253,267.267948 L64.4803144,267.192301 L64.4803144,267.192301 L64.3664616,267.116631 C64.3462532,267.103171 64.325645,267.089429 64.3050446,267.075676 C59.4527547,263.836121 55.0329711,259.992668 51.151488,255.651824 C62.9123657,261.287684 76.0875324,264.444444 90,264.444444 C125.422989,264.444444 156.06621,243.979825 170.751767,214.228481 C170.669448,215.429549 170.556571,216.623307 170.413949,217.807832 L170.406378,217.864293 L170.387378,218.019293 L170.380912,218.077775 L170.353378,218.287293 L170.351378,218.307293 L170.339378,218.400293 L170.338378,218.410293 L170.335378,218.430293 L170.334378,218.440293 L170.258067,219.013705 C170.226914,219.239192 170.194667,219.464428 170.161344,219.68931 C170.14029,219.831398 170.118843,219.973102 170.09697,220.114664 C170.072529,220.272846 170.047514,220.431111 170.021967,220.589195 C169.983679,220.826108 169.944276,221.062149 169.903688,221.297781 C169.883683,221.413922 169.863398,221.529916 169.842827,221.64581 C169.813299,221.812164 169.783144,221.97851 169.752399,222.144647 C169.718082,222.330074 169.683152,222.514613 169.647495,222.69889 L169.535585,223.264605 C169.503094,223.425325 169.470127,223.58547 169.436611,223.745411 C169.414212,223.852304 169.391516,223.959351 169.368573,224.066305 C169.317867,224.30268 169.26606,224.53817 169.213063,224.773204 L169.090493,225.306926 L169.090493,225.306926 L168.975012,225.792865 C168.873824,226.211931 168.768735,226.62992 168.659884,227.046374 C168.587648,227.322736 168.513908,227.597867 168.438529,227.872313 C168.082105,229.169984 167.68919,230.451941 167.260859,231.717395 C167.080203,232.251127 166.893188,232.782084 166.699958,233.310014 L166.575956,233.646097 C166.518263,233.801215 166.460304,233.955355 166.401814,234.109232 C166.33181,234.293403 166.260854,234.477692 166.189137,234.661597 L166.069294,234.966769 L166.069294,234.966769 C165.996378,235.151151 165.922859,235.334746 165.848581,235.517947 C165.773846,235.70228 165.698149,235.886684 165.621684,236.070685 L165.455996,236.465921 L165.455996,236.465921 C165.391293,236.618933 165.325902,236.772023 165.259979,236.924827 C165.168976,237.135764 165.077019,237.346018 164.984055,237.55572 L164.906107,237.730895 L164.906107,237.730895 C164.807415,237.95186 164.707608,238.1722 164.60669,238.391917 C164.5375,238.542557 164.46763,238.693241 164.397238,238.843629 L164.184923,239.293002 L164.184923,239.293002 C164.111886,239.446159 164.038197,239.599227 163.963965,239.751978 C163.883788,239.916967 163.802802,240.08194 163.721184,240.24654 C163.66491,240.360022 163.608688,240.472627 163.552169,240.585057 L163.281501,241.117729 L163.281501,241.117729 C163.198773,241.278807 163.115655,241.439093 163.031934,241.599008 C162.970257,241.716817 162.908158,241.834602 162.845732,241.952184 C162.747172,242.137823 162.647917,242.322732 162.547851,242.507133 C162.489338,242.614963 162.430493,242.722717 162.371372,242.830295 C162.273124,243.00907 162.174019,243.187528 162.074154,243.365496 C161.985581,243.523337 161.896581,243.680493 161.806989,243.837263 C161.740106,243.954294 161.67286,244.071168 161.605284,244.187824 C161.499616,244.370238 161.393167,244.552081 161.285918,244.733388 L161.081786,245.076217 C160.958651,245.281662 160.834915,245.485709 160.710161,245.689056 C160.663965,245.764355 160.617646,245.839533 160.571187,245.914614 C160.260971,246.415956 159.944399,246.91325 159.621731,247.406142 L159.470342,247.636396 L159.470342,247.636396 C159.457983,247.655112 159.445678,247.673727 159.433365,247.692335 C159.054418,248.264991 158.66744,248.831314 158.272384,249.391458 C158.095627,249.642082 157.917071,249.89172 157.736911,250.140103 L157.446606,250.537367 C157.217926,250.847983 156.986722,251.156602 156.753024,251.463194 C156.688014,251.548481 156.622842,251.633572 156.557477,251.718506 L156.195754,252.184412 C156.112512,252.290694 156.02892,252.396783 155.945026,252.502619 C155.795877,252.690775 155.645886,252.877992 155.494948,253.064401 C155.440899,253.131153 155.386566,253.198 155.332112,253.264743 C155.206782,253.418354 155.080996,253.571184 154.954571,253.723458 L154.636967,254.103237 L154.636967,254.103237 C154.537951,254.220784 154.438285,254.338306 154.338235,254.455487 L153.993459,254.856198 L153.710607,255.180384 L153.710607,255.180384 C153.576609,255.333005 153.442051,255.484915 153.30684,255.636221 C153.20625,255.748784 153.105131,255.861199 153.00365,255.973277 L152.688206,256.319308 L152.688206,256.319308 C152.54989,256.470013 152.410646,256.620386 152.270747,256.770131 C152.183232,256.863805 152.095598,256.957088 152.007709,257.050124 L151.657607,257.418025 L151.657607,257.418025 L151.228113,257.862085 L151.228113,257.862085 C151.145427,257.946816 151.062715,258.031142 150.979789,258.115255 L150.774814,258.322293 L150.774814,258.322293 L150.568934,258.528505 C150.454242,258.6429 150.339159,258.756884 150.22368,258.870462 C150.093963,258.998044 149.963439,259.125411 149.832417,259.25226 C149.732684,259.348813 149.632931,259.444811 149.532891,259.540508 C149.366935,259.699261 149.199963,259.857403 149.032207,260.01471 C148.969703,260.073321 148.907198,260.131715 148.844585,260.189993 C148.678576,260.344512 148.51162,260.498387 148.343909,260.651439 C148.246145,260.740659 148.147923,260.829782 148.049444,260.918622 C147.908697,261.045594 147.767506,261.17192 147.625795,261.297667 L147.2999,261.585027 L147.2999,261.585027 C147.155866,261.71123 147.011146,261.836974 146.865901,261.962119 L146.508338,262.268088 L146.508338,262.268088 C146.363674,262.391029 146.21855,262.513334 146.072919,262.635046 L145.783332,262.875733 L145.783332,262.875733 C145.587172,263.037866 145.390464,263.198635 145.192861,263.358327 L144.986885,263.524135 L144.986885,263.524135 C144.852569,263.631835 144.717491,263.739318 144.582003,263.8463 L144.207566,264.139868 L144.207566,264.139868 L144.182734,264.15919 C143.66011,264.565659 143.131507,264.964714 142.59708,265.356199 L142.526835,265.407587 C142.271292,265.594289 142.013869,265.779653 141.755129,265.963264 C141.734197,265.978119 141.713243,265.992971 141.69228,266.007812 C141.456148,266.174983 141.218796,266.340783 140.980362,266.50511 C140.81765,266.61725 140.654095,266.728934 140.490037,266.839925 L140.139579,267.075458 C139.946276,267.204509 139.752833,267.332245 139.558714,267.459022 C139.48947,267.504244 139.419964,267.549459 139.350372,267.59455 C139.157918,267.719248 138.964795,267.843012 138.77102,267.965827 L138.446524,268.170227 L138.060963,268.409818 L138.060963,268.409818 C137.895643,268.511794 137.729851,268.613091 137.563602,268.713699 C137.434542,268.791802 137.305323,268.86942 137.175831,268.946622 C137.028138,269.034675 136.879997,269.122241 136.731503,269.209263 C136.586462,269.294261 136.440833,269.378885 136.294868,269.462986 L135.835235,269.72545 L135.835235,269.72545 L135.426735,269.954784 L135.426735,269.954784 C135.247313,270.054707 135.067418,270.153835 134.887036,270.252174 C134.792567,270.303675 134.698221,270.354822 134.603742,270.405753 L134.056069,270.697787 L134.056069,270.697787 C133.903494,270.778255 133.751132,270.857877 133.598438,270.93694 L133.216762,271.133049 C133.048042,271.21907 132.879028,271.304357 132.709617,271.388962 L132.255679,271.613559 L132.255679,271.613559 L131.831667,271.819579 C131.676983,271.894078 131.522005,271.967999 131.36671,272.041351 C131.205292,272.117596 131.04347,272.193255 130.881309,272.268297 C130.748997,272.329525 130.616785,272.390194 130.484349,272.450452 C130.310863,272.529389 130.136728,272.607739 129.962212,272.685379 L129.50952,272.884809 L129.50952,272.884809 L129.058385,273.079662 L129.058385,273.079662 C128.900066,273.147363 128.741976,273.214261 128.583586,273.280579 L128.092351,273.484006 L128.092351,273.484006 L127.573729,273.693915 L127.573729,273.693915 L127.205857,273.839807 C127.020563,273.912669 126.834826,273.984763 126.648702,274.056067 C126.499367,274.113277 126.349554,274.170064 126.199493,274.226337 C125.679951,274.421167 125.157614,274.609786 124.632392,274.792172 C124.328024,274.897866 124.022651,275.001479 123.716326,275.102981 C123.589993,275.144842 123.46343,275.186367 123.336706,275.22753 C123.23723,275.259843 123.137768,275.291898 123.038207,275.32373 C122.806286,275.397881 122.57376,275.470849 122.340707,275.542602 C122.217224,275.580621 122.093405,275.618356 121.96944,275.655748 C121.768779,275.716272 121.567931,275.77584 121.366703,275.834507 C121.25975,275.865688 121.152578,275.896647 121.045299,275.92735 C120.80968,275.994783 120.573606,276.060965 120.337023,276.125906 L120.084569,276.19468 L120.084569,276.19468 C119.835003,276.26215 119.584979,276.328213 119.334404,276.392889 L119.060748,276.462915 C118.822364,276.523386 118.583592,276.582577 118.344332,276.640507 C118.210118,276.673004 118.075481,276.705167 117.940692,276.736931 L117.404513,276.860992 L117.404513,276.860992 C117.229684,276.900697 117.055049,276.939632 116.880166,276.977897 C116.69862,277.017622 116.516215,277.056748 116.333545,277.095144 C116.195971,277.124059 116.058743,277.15246 115.921367,277.180447 C115.723092,277.220842 115.524307,277.260416 115.325216,277.299125 L114.886738,277.382883 L114.886738,277.382883 L114.273077,277.495107 L114.273077,277.495107 L113.874528,277.564882 C113.680243,277.5983 113.485907,277.63086 113.291297,277.662597 C113.128452,277.689153 112.9654,277.715136 112.802158,277.74054 C112.590491,277.77348 112.378592,277.805434 112.166378,277.836412 L111.83211,277.884361 C111.608342,277.915897 111.383777,277.946406 111.158871,277.975819 C111.018315,277.9942 110.87826,278.012075 110.738073,278.029524 C110.532019,278.055174 110.325007,278.079983 110.117715,278.103863 L109.691893,278.151567 C109.497577,278.172721 109.302604,278.193101 109.10739,278.212659 C108.941837,278.229244 108.776418,278.245209 108.610827,278.260582 C108.424388,278.277892 108.237427,278.294477 108.050253,278.310307 L107.57586,278.348774 C107.37087,278.364681 107.165674,278.379679 106.960229,278.393768 C106.804794,278.404428 106.649061,278.414577 106.493188,278.424202 L106.087432,278.448058 L106.087432,278.448058 C105.851344,278.46124 105.614887,278.473225 105.378118,278.484003 L105.186326,278.492466 L105.186326,278.492466 C104.914122,278.5041 104.641424,278.514142 104.368326,278.522579 C104.070801,278.531767 103.773608,278.539036 103.475954,278.544399 C103.422827,278.545356 103.369084,278.546263 103.315327,278.547107 L102.769073,278.553539 L102.222222,278.555685 L101.542488,278.550748 L101.737378,278.553293 Z" id="形状结合" fill="url(#linearGradient-12)" opacity="0.600000024"></path>
                </g>
            </g>
        </g>
    </g>
</svg>