<?xml version="1.0" encoding="UTF-8"?>
<svg width="40px" height="40px" viewBox="0 0 40 40" version="1.1" xmlns="http://www.w3.org/2000/svg" xmlns:xlink="http://www.w3.org/1999/xlink">
    <title>ic_medium</title>
    <g id="最终定稿" stroke="none" stroke-width="1" fill="none" fill-rule="evenodd">
        <g id="新增" transform="translate(-824.000000, -913.000000)" fill="#0E0905" fill-rule="nonzero">
            <g id="编组-14" transform="translate(575.000000, 913.000000)">
                <g id="ic_medium" transform="translate(249.014824, 0.000000)">
                    <path d="M19.992588,0 C8.9520383,0 0,8.95535714 0,20 C0,31.0446429 8.9520383,40 19.992588,40 C31.0331377,40 39.985176,31.0446429 39.985176,20 C39.985176,8.95535714 31.0331377,0 19.992588,0 Z M31.416924,11.3258929 L29.5961705,13.0714286 C29.4355158,13.1919643 29.359651,13.3883929 29.3908894,13.5803571 L29.3908894,26.4241071 C29.359651,26.6205357 29.4355158,26.8169643 29.5961705,26.9330357 L31.381223,28.6785714 L31.381223,29.0669643 L22.4202594,29.0669643 L22.4202594,28.6964286 L24.2633261,26.90625 C24.446294,26.7232143 24.446294,26.6696429 24.446294,26.3973214 L24.446294,16.0044643 L19.3142681,29.0223214 L18.6225602,29.0223214 L12.6515596,16.0044643 L12.6515596,24.7321429 C12.598008,25.0982143 12.7274243,25.46875 12.9862569,25.7321429 L15.3871526,28.6383929 L15.3871526,29.0267857 L8.56825201,29.0267857 L8.56825201,28.6383929 L10.9691476,25.7321429 C11.2279802,25.46875 11.339546,25.09375 11.2815318,24.7321429 L11.2815318,14.6428571 C11.3127702,14.3616071 11.2056671,14.0892857 10.9914608,13.8973214 L8.85832304,11.3258929 L8.85832304,10.9375 L15.4853305,10.9375 L20.5995059,22.1651786 L25.1023008,10.9464286 L31.416924,10.9464286 L31.416924,11.3258929 Z" id="形状"></path>
                </g>
            </g>
        </g>
    </g>
</svg>