<?xml version="1.0" encoding="UTF-8"?>
<svg width="40px" height="40px" viewBox="0 0 40 40" version="1.1" xmlns="http://www.w3.org/2000/svg" xmlns:xlink="http://www.w3.org/1999/xlink">
    <title>ic_telegram</title>
    <g id="最终定稿" stroke="none" stroke-width="1" fill="none" fill-rule="evenodd">
        <g id="新增" transform="translate(-741.000000, -913.000000)" fill-rule="nonzero">
            <g id="编组-14" transform="translate(575.000000, 913.000000)">
                <g id="ic_telegram" transform="translate(166.009883, 0.000000)">
                    <rect id="矩形" fill="#000000" opacity="0" x="0" y="0" width="39.985176" height="40"></rect>
                    <path d="M19.992588,0.625 C9.29342959,0.625 0.624768376,9.296875 0.624768376,20 C0.624768376,30.703125 9.29342959,39.375 19.992588,39.375 C30.6917464,39.375 39.3604077,30.703125 39.3604077,20 C39.3604077,9.296875 30.6917464,0.625 19.992588,0.625 Z M29.5046865,13.8984375 L26.3261774,28.8828125 C26.0918893,29.9453125 25.4593113,30.203125 24.576826,29.703125 L19.7348711,26.1328125 L17.3997993,28.3828125 C17.1420823,28.640625 16.9234134,28.859375 16.4235987,28.859375 L16.7672213,23.9296875 L25.7404571,15.8203125 C26.1309373,15.4765625 25.6545514,15.28125 25.1391175,15.625 L14.0494788,22.609375 L9.27000077,21.1171875 C8.23132335,20.7890625 8.20789453,20.078125 9.4886697,19.578125 L28.1614345,12.375 C29.0283006,12.0625 29.7858323,12.5859375 29.5046865,13.8984375 Z" id="形状" fill="#0E0905"></path>
                </g>
            </g>
        </g>
    </g>
</svg>